<svg xmlns="http://www.w3.org/2000/svg" width="325.792" height="325.792" viewBox="0 0 325.792 325.792">
  <title>Asset 1</title>
  <g id="Layer_2" data-name="Layer 2">
    <g id="Logo">
      <g>
        <ellipse cx="162.896" cy="162.896" rx="215.5933" ry="81" transform="translate(-67.4737 162.896) rotate(-45)" fill="#292929"/>
        <g>
          <path d="M131.316,137.5369c.18-1.79.03-3.61.03-6.41-5.44,7.81-9.41,15.38-13.76,22.71-14.76,24.85-32.42,47.67-49.58,70.83-10.98,14.82-22,29.62-32.87,44.53-1.65,2.25-3.12,2.69-5.8,1.95a143.3044,143.3044,0,0,1-23.99-8.51c7.75-10.08,15.8-19.56,24.13-28.82,23.39-26.01,45.8-52.81,65.02-82.1,23.25-35.43,40.21-73.61,49.87-114.93l.01.01c1.41-3.29,1.08-21.29,14.31-3.99h.01c11.41,14.35,25.04,28.14,43.91,44.44l.8.69c9.38,8.1,19.09,16.48,27.79,25.83,3.8,4.08,3.84,8.16.12,12.11a273.1249,273.1249,0,0,0-27.37,34.34c-1.74,2.56-3.56,5.1-5.31,7.55-1.2,1.66-2.39,3.31-3.56,4.99,4.38-.38,8.74-.56,13.05-.56,30.12,0,58.97,8.82,88.21,26.97l6.11,3.79-5.9,4.12a22.8492,22.8492,0,0,1-7.78,3.37l-.42.11c-23.75,6.45-47.74,17.82-75.52,35.78-17.88,11.57-32.45,21.44-45.5,30.85a15.1936,15.1936,0,0,0-1.78,1.28.5547.5547,0,0,0-.08.06c-.88.64-1.74,1.27-2.6,1.9a29.6783,29.6783,0,0,1-18.03,5.06c-.47.02-.95.03-1.45.01-11.83-.57-23.63-1.87-35.5-1.63-2.64.06-2.94-.68-2.33-3.16q10.275-41.94,18.81-84.27C127.616,170.2869,129.686,153.9369,131.316,137.5369Zm25.11-92.56c5.55,29,12.67,95.52-.76,218.97,14.75-10.86,31.16-22.08,52.02-35.57,27.47-17.77,51.46-29.3,75.21-36.13-24.8-13.83-49.35-20.58-74.77-20.58a146.517,146.517,0,0,0-20.05,1.4l-5.8.8.43-5.84c.33-4.56,2.47-7.63,4.18-10.09l.15-.21c1.28-1.85,2.59-3.67,3.9-5.49,1.72-2.4,3.5-4.87,5.16-7.33a283.9435,283.9435,0,0,1,27.84-35.02c-8.27-8.84-17.65-16.94-26.73-24.78l-.8-.69C179.816,70.0869,167.136,57.6069,156.426,44.9769Z" fill="#919191"/>
          <path d="M155.666,263.9469c13.43-123.45,6.31-189.97.76-218.97,10.71,12.63,23.39,25.11,39.98,39.44l.8.69c9.08,7.84,18.46,15.94,26.73,24.78a283.9435,283.9435,0,0,0-27.84,35.02c-1.66,2.46-3.44,4.93-5.16,7.33-1.31,1.82-2.62,3.64-3.9,5.49l-.15.21c-1.71,2.46-3.85,5.53-4.18,10.09l-.43,5.84,5.8-.8a146.517,146.517,0,0,1,20.05-1.4c25.42,0,49.97,6.75,74.77,20.58-23.75,6.83-47.74,18.36-75.21,36.13C186.826,241.8669,170.416,253.0869,155.666,263.9469Z" fill="#fff"/>
        </g>
      </g>
    </g>
  </g>
</svg>
