<svg xmlns="http://www.w3.org/2000/svg" width="248.626" height="50.6895" viewBox="0 0 248.626 50.6895">
  <title>abudriman-dark</title>
  <g id="Layer_2" data-name="Layer 2">
    <g id="Layer_1-2" data-name="Layer 1">
      <g>
        <g>
          <ellipse cx="25.3447" cy="25.3447" rx="33.5438" ry="12.6027" transform="translate(-10.4981 25.3447) rotate(-45)" fill="#f7e041"/>
          <g>
            <path d="M23.9186,3.781c-.3331.07-.3636.7518-.4627,1.18a56.6285,56.6285,0,0,1-7.9614,18.4021A109.7262,109.7262,0,0,1,5.1533,36.42C3.83,37.892,2.55,39.4005,1.3169,41.003a22.8263,22.8263,0,0,0,3.8147,1.3536.7209.7209,0,0,0,.9218-.3112c1.7293-2.37,3.4809-4.7237,5.2277-7.081A134.949,134.949,0,0,0,19.1664,23.7c.6918-1.1649,1.3219-2.3688,2.1875-3.6117,0,.4453.0245.7352-.0038,1.02-.2593,2.6074-.5888,5.2082-1.1054,7.7758Q18.89,35.6158,17.2522,42.2865c-.0964.3933-.0492.5111.3716.5025,1.8866-.0386,3.764.1676,5.6457.2583a1.9709,1.9709,0,0,0,.706-.0818C27.844,16.7044,23.9186,3.781,23.9186,3.781Z" fill="#b52a2a"/>
            <path d="M30.2733,26.0118a2.4415,2.4415,0,0,1,.5559-1.2635c.4767-.6858.9786-1.3542,1.4461-2.0461a44.035,44.035,0,0,1,4.4277-5.5555c.3453-.3667.286-.5646-.0215-.895a56.16,56.16,0,0,0-4.488-4.1612A53.1548,53.1548,0,0,1,24.901,4.6539c-.2772-.3549-.57-.96-.9824-.8729,0,0,3.9254,12.9234.0569,39.1845a1.7613,1.7613,0,0,0,.5326-.2808c3.0384-2.3,6.1972-4.4287,9.3949-6.497a43.6432,43.6432,0,0,1,12.222-5.7844,3.0635,3.0635,0,0,0,1.0694-.4444A24.7779,24.7779,0,0,0,30.2733,26.0118Z" fill="#1788c7"/>
          </g>
        </g>
        <g>
          <path d="M77.2322,33.77l-1.04-2.7341H67.3359l-1.04,2.7935a9.78,9.78,0,0,1-1.04,2.2066,1.6537,1.6537,0,0,1-1.4117.5721,2.07,2.07,0,0,1-1.4711-.6092,1.8658,1.8658,0,0,1-.6389-1.3819,3.0813,3.0813,0,0,1,.1486-.9213q.1486-.4755.49-1.3225l5.5723-14.1461q.2378-.6091.5721-1.4636a7.4012,7.4012,0,0,1,.7132-1.4191,2.897,2.897,0,0,1,.9956-.9138,3.0517,3.0517,0,0,1,1.5231-.3492,3.0847,3.0847,0,0,1,1.5379.3492,2.9559,2.9559,0,0,1,.9956.8989,6.3085,6.3085,0,0,1,.639,1.1814q.26.6315.6612,1.6865l5.6911,14.0569a7.0653,7.0653,0,0,1,.6687,2.333,1.9312,1.9312,0,0,1-.6315,1.3893,2.0757,2.0757,0,0,1-1.5231.6315,1.9754,1.9754,0,0,1-.8916-.1857,1.8279,1.8279,0,0,1-.6241-.5052,4.65,4.65,0,0,1-.5423-.9808Q77.44,34.2752,77.2322,33.77Z" fill="#fff" stroke="#fff" stroke-miterlimit="10" stroke-width="0.25"/>
          <polygon points="68.495 27.722 75.003 27.722 71.719 18.732 68.495 27.722" fill="#fff" stroke="#fff" stroke-miterlimit="10" stroke-width="0.25"/>
          <path d="M94.4839,36.2366h-6.657a2.7546,2.7546,0,0,1-2.058-.6463,2.9052,2.9052,0,0,1-.6167-2.0581V17.1572a2.8514,2.8514,0,0,1,.6315-2.0728,2.8034,2.8034,0,0,1,2.0432-.6316h7.0582a16.4682,16.4682,0,0,1,2.7044.1932,5.7616,5.7616,0,0,1,2.0506.743,5.38,5.38,0,0,1,1.367,1.1664,5.1486,5.1486,0,0,1,.9065,1.56,5.2218,5.2218,0,0,1,.312,1.8054,5.0089,5.0089,0,0,1-3.269,4.7847q4.2944,1.3671,4.2943,5.32a5.9786,5.9786,0,0,1-.9361,3.2914,5.6185,5.6185,0,0,1-2.5261,2.162,8.9834,8.9834,0,0,1-2.2884.587A23.3231,23.3231,0,0,1,94.4839,36.2366Z" fill="#fff" stroke="#fff" stroke-miterlimit="10" stroke-width="0.25"/>
          <path d="M89.5654,17.7665v5.6317h4.0418a8.1146,8.1146,0,0,0,2.5484-.3121A2.4328,2.4328,0,0,0,97.53,21.8974a2.6793,2.6793,0,0,0,.3714-1.3968,2.1677,2.1677,0,0,0-1.1738-2.1918,8.97,8.97,0,0,0-3.5811-.5423Z" fill="#fff" stroke="#fff" stroke-miterlimit="10" stroke-width="0.25"/>
          <path d="M94.157,26.5632H89.5654v6.36h4.74q4.4727,0,4.4726-3.2245a2.6291,2.6291,0,0,0-1.159-2.3923A6.4922,6.4922,0,0,0,94.157,26.5632Z" fill="#fff" stroke="#fff" stroke-miterlimit="10" stroke-width="0.25"/>
          <path d="M105.94,27.2319V16.756a2.916,2.916,0,0,1,.6019-2.006,2.0272,2.0272,0,0,1,1.5825-.6686,2.08,2.08,0,0,1,1.6271.6686,2.9165,2.9165,0,0,1,.6018,2.006V27.47a9.7742,9.7742,0,0,0,.4086,3.0536,3.5248,3.5248,0,0,0,1.4488,1.902,5.3223,5.3223,0,0,0,2.9124.6761,4.3633,4.3633,0,0,0,3.6554-1.3745,6.7334,6.7334,0,0,0,1.07-4.168V16.756a2.9361,2.9361,0,0,1,.5944-2.0134,2.0325,2.0325,0,0,1,1.59-.6612,2.1028,2.1028,0,0,1,1.6123.6612,2.8646,2.8646,0,0,1,.6166,2.0134V27.2319a15.4977,15.4977,0,0,1-.4978,4.2646,6.5832,6.5832,0,0,1-1.88,3.0016,7.3013,7.3013,0,0,1-2.7638,1.6048,12.0948,12.0948,0,0,1-3.6851.5052,15.1956,15.1956,0,0,1-4.3241-.5423,6.92,6.92,0,0,1-2.957-1.6791,6.7693,6.7693,0,0,1-1.6791-2.9125A14.8134,14.8134,0,0,1,105.94,27.2319Z" fill="#fff" stroke="#fff" stroke-miterlimit="10" stroke-width="0.25"/>
          <path d="M131.766,14.4528h5.7506a15.5021,15.5021,0,0,1,3.8485.4161,7.0769,7.0769,0,0,1,2.9125,1.56q3.4027,2.9126,3.4027,8.8562a17.38,17.38,0,0,1-.3417,3.5811,10.5748,10.5748,0,0,1-1.055,2.92,9.0763,9.0763,0,0,1-1.8277,2.3255,7.5627,7.5627,0,0,1-1.9169,1.263,8.6811,8.6811,0,0,1-2.2363.6687,17.0239,17.0239,0,0,1-2.697.1931h-5.7506a3.6,3.6,0,0,1-1.8128-.364,1.6932,1.6932,0,0,1-.795-1.0253,6.5174,6.5174,0,0,1-.1857-1.7163V17.1572a2.834,2.834,0,0,1,.6389-2.0654A2.8338,2.8338,0,0,1,131.766,14.4528Z" fill="#fff" stroke="#fff" stroke-miterlimit="10" stroke-width="0.25"/>
          <path d="M133.4748,17.9448V32.73h3.3434q1.1,0,1.7236-.0594a5.3854,5.3854,0,0,0,1.2928-.2972,3.5209,3.5209,0,0,0,1.159-.6687q2.2141-1.8722,2.2141-6.4489a9.4983,9.4983,0,0,0-.9733-4.8293,4.3336,4.3336,0,0,0-2.4-2.0432,11.84,11.84,0,0,0-3.4474-.4383Z" fill="#fff" stroke="#fff" stroke-miterlimit="10" stroke-width="0.25"/>
          <path d="M157.4875,26.92h-1.5454v6.9988a2.9077,2.9077,0,0,1-.6092,2.0357,2.0725,2.0725,0,0,1-1.59.6538,2.0255,2.0255,0,0,1-1.6346-.6835,3.0289,3.0289,0,0,1-.5795-2.006V17.1572a2.8335,2.8335,0,0,1,.639-2.0654,2.8334,2.8334,0,0,1,2.0654-.639H161.41a21.8,21.8,0,0,1,2.5409.1263,6.3856,6.3856,0,0,1,1.902.5127,5.5083,5.5083,0,0,1,1.8129,1.2333,5.4011,5.4011,0,0,1,1.1961,1.8649,6.2149,6.2149,0,0,1,.4087,2.2512,5.44,5.44,0,0,1-1.3745,3.8931A7.8943,7.8943,0,0,1,163.7284,26.4a8.0659,8.0659,0,0,1,2.2438,1.8425,18.6851,18.6851,0,0,1,1.9094,2.593,19.2038,19.2038,0,0,1,1.3076,2.4815,4.9007,4.9007,0,0,1,.4681,1.5231,1.5563,1.5563,0,0,1-.2749.8544,1.9268,1.9268,0,0,1-.75.6686,2.3657,2.3657,0,0,1-1.1.2452,2.143,2.143,0,0,1-1.2482-.3492,3.3577,3.3577,0,0,1-.8692-.8841q-.364-.5349-.9882-1.5751l-1.7682-2.9421a16.1946,16.1946,0,0,0-1.7014-2.4667,4.2,4.2,0,0,0-1.5231-1.159A5.2345,5.2345,0,0,0,157.4875,26.92Z" fill="#fff" stroke="#fff" stroke-miterlimit="10" stroke-width="0.25"/>
          <path d="M160.0136,17.7665h-4.0715v5.9883h3.9526a11.0711,11.0711,0,0,0,2.6747-.2749,3.137,3.137,0,0,0,1.6568-.9361,2.6907,2.6907,0,0,0,.5721-1.82,2.8123,2.8123,0,0,0-.4606-1.5974,2.784,2.784,0,0,0-1.2779-1.0327A9.192,9.192,0,0,0,160.0136,17.7665Z" fill="#fff" stroke="#fff" stroke-miterlimit="10" stroke-width="0.25"/>
          <path d="M173.6248,33.9186V16.756a2.8923,2.8923,0,0,1,.6092-2.006,2.0331,2.0331,0,0,1,1.5751-.6686,2.1024,2.1024,0,0,1,1.6122.6612,2.8646,2.8646,0,0,1,.6167,2.0134V33.9186a2.8937,2.8937,0,0,1-.6167,2.0209,2.091,2.091,0,0,1-1.6122.6686,2.0286,2.0286,0,0,1-1.5677-.6761A2.8981,2.8981,0,0,1,173.6248,33.9186Z" fill="#fff" stroke="#fff" stroke-miterlimit="10" stroke-width="0.25"/>
          <path d="M190.3267,32.9527l-3.492-13.8786V34.1118a2.7363,2.7363,0,0,1-.5572,1.8722,2.0456,2.0456,0,0,1-2.9347.0075,2.7074,2.7074,0,0,1-.5647-1.88V16.8749a2.16,2.16,0,0,1,.743-1.9243,3.5582,3.5582,0,0,1,2.006-.4978h1.3671a5.2129,5.2129,0,0,1,1.79.2229,1.5033,1.5033,0,0,1,.8247.8024,12.4529,12.4529,0,0,1,.6092,1.8872l3.1651,11.932,3.165-11.932a12.4644,12.4644,0,0,1,.6092-1.8872,1.5039,1.5039,0,0,1,.8247-.8024,5.2135,5.2135,0,0,1,1.7906-.2229H201.04a3.5582,3.5582,0,0,1,2.006.4978,2.16,2.16,0,0,1,.7429,1.9243V34.1118a2.7363,2.7363,0,0,1-.5572,1.8722,1.9027,1.9027,0,0,1-1.4934.6241,1.8571,1.8571,0,0,1-1.4413-.6241,2.7117,2.7117,0,0,1-.5647-1.8722V19.0741l-3.4919,13.8786q-.3419,1.3522-.5572,1.9837a2.7392,2.7392,0,0,1-.795,1.1516,2.3168,2.3168,0,0,1-1.6048.52,2.3482,2.3482,0,0,1-2.14-1.1887,4.8776,4.8776,0,0,1-.468-1.1516Q190.5049,33.6363,190.3267,32.9527Z" fill="#fff" stroke="#fff" stroke-miterlimit="10" stroke-width="0.25"/>
          <path d="M222.2594,33.77l-1.04-2.7341h-8.8561l-1.04,2.7935a9.78,9.78,0,0,1-1.04,2.2066,1.6537,1.6537,0,0,1-1.4117.5721,2.07,2.07,0,0,1-1.471-.6092,1.8656,1.8656,0,0,1-.639-1.3819,3.0813,3.0813,0,0,1,.1486-.9213q.1487-.4755.49-1.3225l5.5722-14.1461q.2378-.6091.5721-1.4636a7.4012,7.4012,0,0,1,.7132-1.4191,2.897,2.897,0,0,1,.9956-.9138,3.0517,3.0517,0,0,1,1.5231-.3492,3.0847,3.0847,0,0,1,1.5379.3492,2.9559,2.9559,0,0,1,.9956.8989,6.3085,6.3085,0,0,1,.639,1.1814q.26.6315.6612,1.6865l5.6911,14.0569a7.0653,7.0653,0,0,1,.6687,2.333,1.9312,1.9312,0,0,1-.6315,1.3893,2.0757,2.0757,0,0,1-1.5231.6315,1.9754,1.9754,0,0,1-.8916-.1857,1.8266,1.8266,0,0,1-.624-.5052,4.6447,4.6447,0,0,1-.5424-.9808Q222.4674,34.2752,222.2594,33.77Z" fill="#fff" stroke="#fff" stroke-miterlimit="10" stroke-width="0.25"/>
          <polygon points="213.522 27.722 220.03 27.722 216.747 18.732 213.522 27.722" fill="#fff" stroke="#fff" stroke-miterlimit="10" stroke-width="0.25"/>
          <path d="M235.96,16.7263l8.4847,12.8385V16.6074a2.8442,2.8442,0,0,1,.5424-1.8945,1.83,1.83,0,0,1,1.4636-.6315,1.8868,1.8868,0,0,1,1.5008.6315,2.8177,2.8177,0,0,1,.55,1.8945V33.74q0,2.8679-2.3775,2.8678a3.1468,3.1468,0,0,1-1.07-.1709,2.7149,2.7149,0,0,1-.8915-.5423,5.28,5.28,0,0,1-.7727-.8693q-.3567-.4978-.7133-1.0179L234.4,21.3179V34.082a2.7238,2.7238,0,0,1-.5795,1.8872,1.9162,1.9162,0,0,1-1.486.6389,1.894,1.894,0,0,1-1.5008-.6464,2.7765,2.7765,0,0,1-.5646-1.88V17.2761a4.7582,4.7582,0,0,1,.2377-1.6791,2.3979,2.3979,0,0,1,.9362-1.0922,2.5478,2.5478,0,0,1,1.4116-.4234,2.3124,2.3124,0,0,1,1.7608.7132,5.3678,5.3678,0,0,1,.6539.847Q235.603,16.1617,235.96,16.7263Z" fill="#fff" stroke="#fff" stroke-miterlimit="10" stroke-width="0.25"/>
        </g>
      </g>
    </g>
  </g>
</svg>
