<svg xmlns="http://www.w3.org/2000/svg" width="248.6257" height="50.6894" viewBox="0 0 248.6257 50.6894">
  <title>abudriman-light</title>
  <g id="Layer_2" data-name="Layer 2">
    <g id="Layer_1-2" data-name="Layer 1">
      <g>
        <g>
          <path d="M77.2321,33.77l-1.04-2.7341H67.3358l-1.04,2.7936a9.78,9.78,0,0,1-1.04,2.2066,1.6537,1.6537,0,0,1-1.4117.5721,2.0694,2.0694,0,0,1-1.471-.6093,1.8654,1.8654,0,0,1-.639-1.3819,3.0813,3.0813,0,0,1,.1486-.9213q.1486-.4755.49-1.3224L67.945,18.2271q.2378-.6093.5721-1.4637a7.4,7.4,0,0,1,.7132-1.419,2.8973,2.8973,0,0,1,.9956-.9139,3.0517,3.0517,0,0,1,1.5231-.3492,3.0847,3.0847,0,0,1,1.5379.3492,2.9572,2.9572,0,0,1,.9956.899,6.3076,6.3076,0,0,1,.639,1.1813q.26.6315.6612,1.6866l5.6911,14.0569a7.0656,7.0656,0,0,1,.6687,2.3329,1.9316,1.9316,0,0,1-.6315,1.3894,2.0757,2.0757,0,0,1-1.5231.6315,1.974,1.974,0,0,1-.8916-.1858,1.8258,1.8258,0,0,1-.6241-.5052,4.6466,4.6466,0,0,1-.5423-.9807Q77.44,34.2752,77.2321,33.77Z" stroke="#000" stroke-miterlimit="10" stroke-width="0.25"/>
          <polygon points="68.495 27.722 75.003 27.722 71.719 18.732 68.495 27.722" stroke="#000" stroke-miterlimit="10" stroke-width="0.25"/>
          <path d="M94.4838,36.2366h-6.657a2.7546,2.7546,0,0,1-2.058-.6464,2.9048,2.9048,0,0,1-.6167-2.058V17.1572a2.8517,2.8517,0,0,1,.6315-2.0729,2.8037,2.8037,0,0,1,2.0432-.6315H94.885a16.4682,16.4682,0,0,1,2.7044.1932,5.7634,5.7634,0,0,1,2.0506.7429,5.38,5.38,0,0,1,1.367,1.1665,5.1457,5.1457,0,0,1,.9064,1.56,5.22,5.22,0,0,1,.3121,1.8054,5.0088,5.0088,0,0,1-3.2691,4.7847q4.2943,1.3671,4.2944,5.32a5.9781,5.9781,0,0,1-.9362,3.2913,5.6179,5.6179,0,0,1-2.526,2.1621,8.9846,8.9846,0,0,1-2.2884.5869A23.3216,23.3216,0,0,1,94.4838,36.2366Z" stroke="#000" stroke-miterlimit="10" stroke-width="0.25"/>
          <path d="M89.5653,17.7664v5.6317h4.0418a8.1169,8.1169,0,0,0,2.5483-.312A2.4323,2.4323,0,0,0,97.53,21.8973a2.6778,2.6778,0,0,0,.3715-1.3967,2.1676,2.1676,0,0,0-1.1739-2.1918,8.9678,8.9678,0,0,0-3.5811-.5424Z" stroke="#000" stroke-miterlimit="10" stroke-width="0.25"/>
          <path d="M94.1569,26.5632H89.5653v6.36h4.74q4.4726,0,4.4726-3.2245a2.6292,2.6292,0,0,0-1.159-2.3924A6.4925,6.4925,0,0,0,94.1569,26.5632Z" stroke="#000" stroke-miterlimit="10" stroke-width="0.25"/>
          <path d="M105.94,27.2318V16.756a2.9163,2.9163,0,0,1,.6018-2.006,2.0273,2.0273,0,0,1,1.5825-.6687,2.08,2.08,0,0,1,1.6271.6687,2.9163,2.9163,0,0,1,.6018,2.006V27.47a9.7718,9.7718,0,0,0,.4087,3.0536,3.5251,3.5251,0,0,0,1.4488,1.902,5.3232,5.3232,0,0,0,2.9124.6761,4.3638,4.3638,0,0,0,3.6554-1.3745,6.7344,6.7344,0,0,0,1.07-4.1681V16.756a2.9364,2.9364,0,0,1,.5944-2.0134,2.0326,2.0326,0,0,1,1.59-.6613,2.1021,2.1021,0,0,1,1.6122.6613,2.8644,2.8644,0,0,1,.6167,2.0134V27.2318a15.5023,15.5023,0,0,1-.4978,4.2647,6.5837,6.5837,0,0,1-1.88,3.0015,7.3025,7.3025,0,0,1-2.7639,1.6049,12.0943,12.0943,0,0,1-3.6851.5052,15.191,15.191,0,0,1-4.324-.5424,6.92,6.92,0,0,1-2.957-1.6791,6.7683,6.7683,0,0,1-1.6791-2.9124A14.81,14.81,0,0,1,105.94,27.2318Z" stroke="#000" stroke-miterlimit="10" stroke-width="0.25"/>
          <path d="M131.7658,14.4528h5.7506a15.5035,15.5035,0,0,1,3.8486.4161,7.0748,7.0748,0,0,1,2.9124,1.56q3.4027,2.9124,3.4028,8.8562a17.3731,17.3731,0,0,1-.3418,3.5811,10.5721,10.5721,0,0,1-1.055,2.92,9.0724,9.0724,0,0,1-1.8277,2.3255,7.561,7.561,0,0,1-1.9169,1.263,8.68,8.68,0,0,1-2.2363.6687,17.0214,17.0214,0,0,1-2.697.1932H131.855a3.6,3.6,0,0,1-1.8129-.3641,1.6928,1.6928,0,0,1-.7949-1.0253,6.5123,6.5123,0,0,1-.1858-1.7162V17.1572a2.8334,2.8334,0,0,1,.639-2.0654A2.8335,2.8335,0,0,1,131.7658,14.4528Z" stroke="#000" stroke-miterlimit="10" stroke-width="0.25"/>
          <path d="M133.4747,17.9448V32.73h3.3433q1.1,0,1.7237-.0594a5.39,5.39,0,0,0,1.2927-.2972,3.5214,3.5214,0,0,0,1.1591-.6687q2.214-1.8723,2.214-6.449a9.4979,9.4979,0,0,0-.9733-4.8292,4.3329,4.3329,0,0,0-2.4-2.0432,11.8388,11.8388,0,0,0-3.4473-.4383Z" stroke="#000" stroke-miterlimit="10" stroke-width="0.25"/>
          <path d="M157.4873,26.92H155.942v6.9987a2.908,2.908,0,0,1-.6093,2.0358,2.0729,2.0729,0,0,1-1.59.6538,2.0253,2.0253,0,0,1-1.6345-.6836,3.028,3.028,0,0,1-.58-2.006V17.1572a2.8334,2.8334,0,0,1,.639-2.0654,2.8335,2.8335,0,0,1,2.0654-.639H161.41a21.8,21.8,0,0,1,2.5409.1263,6.3856,6.3856,0,0,1,1.902.5127,5.5068,5.5068,0,0,1,1.8129,1.2333,5.4014,5.4014,0,0,1,1.1962,1.8648,6.217,6.217,0,0,1,.4086,2.2512,5.44,5.44,0,0,1-1.3745,3.8932,7.8936,7.8936,0,0,1-4.168,2.0654,8.0692,8.0692,0,0,1,2.2437,1.8426,18.6821,18.6821,0,0,1,1.9094,2.5929,19.2181,19.2181,0,0,1,1.3077,2.4815,4.9025,4.9025,0,0,1,.468,1.5231,1.5558,1.5558,0,0,1-.2749.8544,1.9271,1.9271,0,0,1-.75.6687,2.367,2.367,0,0,1-1.1.2452,2.1424,2.1424,0,0,1-1.2481-.3492,3.3554,3.3554,0,0,1-.8693-.8842q-.3641-.5349-.9882-1.575l-1.7682-2.9422a16.1806,16.1806,0,0,0-1.7014-2.4666,4.2,4.2,0,0,0-1.5231-1.1591A5.2367,5.2367,0,0,0,157.4873,26.92Z" stroke="#000" stroke-miterlimit="10" stroke-width="0.25"/>
          <path d="M160.0134,17.7664H155.942v5.9884h3.9525a11.0762,11.0762,0,0,0,2.6747-.2749,3.1367,3.1367,0,0,0,1.6568-.9362,2.69,2.69,0,0,0,.5721-1.82,2.75,2.75,0,0,0-1.7385-2.63A9.1944,9.1944,0,0,0,160.0134,17.7664Z" stroke="#000" stroke-miterlimit="10" stroke-width="0.25"/>
          <path d="M173.6246,33.9185V16.756a2.8922,2.8922,0,0,1,.6092-2.006,2.0332,2.0332,0,0,1,1.5751-.6687,2.1021,2.1021,0,0,1,1.6122.6613,2.8644,2.8644,0,0,1,.6167,2.0134V33.9185a2.8936,2.8936,0,0,1-.6167,2.0209,2.0908,2.0908,0,0,1-1.6122.6687,2.0289,2.0289,0,0,1-1.5677-.6761A2.8984,2.8984,0,0,1,173.6246,33.9185Z" stroke="#000" stroke-miterlimit="10" stroke-width="0.25"/>
          <path d="M190.3265,32.9527l-3.492-13.8786V34.1117a2.7368,2.7368,0,0,1-.5572,1.8723,2.0455,2.0455,0,0,1-2.9347.0074,2.7074,2.7074,0,0,1-.5647-1.88V16.8749a2.16,2.16,0,0,1,.743-1.9243,3.5574,3.5574,0,0,1,2.006-.4978h1.367a5.2132,5.2132,0,0,1,1.7906.2229,1.5033,1.5033,0,0,1,.8247.8024,12.4507,12.4507,0,0,1,.6092,1.8871l3.1651,11.9321,3.165-11.9321a12.4507,12.4507,0,0,1,.6092-1.8871,1.5033,1.5033,0,0,1,.8247-.8024,5.2135,5.2135,0,0,1,1.7906-.2229h1.367a3.5571,3.5571,0,0,1,2.006.4978,2.16,2.16,0,0,1,.743,1.9243V34.1117a2.7368,2.7368,0,0,1-.5572,1.8723,1.903,1.903,0,0,1-1.4934.6241,1.8575,1.8575,0,0,1-1.4413-.6241,2.7122,2.7122,0,0,1-.5647-1.8723V19.0741l-3.4919,13.8786q-.3419,1.3521-.5573,1.9837a2.7386,2.7386,0,0,1-.7949,1.1516,2.3173,2.3173,0,0,1-1.6048.52,2.3482,2.3482,0,0,1-2.14-1.1888,4.882,4.882,0,0,1-.4681-1.1516Q190.5048,33.6362,190.3265,32.9527Z" stroke="#000" stroke-miterlimit="10" stroke-width="0.25"/>
          <path d="M222.2592,33.77l-1.04-2.7341h-8.8562l-1.04,2.7936a9.78,9.78,0,0,1-1.04,2.2066,1.6534,1.6534,0,0,1-1.4116.5721,2.07,2.07,0,0,1-1.4711-.6093,1.8657,1.8657,0,0,1-.6389-1.3819,3.0813,3.0813,0,0,1,.1486-.9213q.1485-.4755.49-1.3224l5.5723-14.1461q.2377-.6093.5721-1.4637a7.3943,7.3943,0,0,1,.7132-1.419,2.8973,2.8973,0,0,1,.9956-.9139,3.0517,3.0517,0,0,1,1.5231-.3492,3.0849,3.0849,0,0,1,1.5379.3492,2.9572,2.9572,0,0,1,.9956.899,6.3015,6.3015,0,0,1,.6389,1.1813q.26.6315.6613,1.6866l5.6911,14.0569a7.0656,7.0656,0,0,1,.6687,2.3329,1.9313,1.9313,0,0,1-.6316,1.3894,2.0756,2.0756,0,0,1-1.523.6315,1.9737,1.9737,0,0,1-.8916-.1858,1.8249,1.8249,0,0,1-.6241-.5052,4.6506,4.6506,0,0,1-.5424-.9807Q222.4673,34.2752,222.2592,33.77Z" stroke="#000" stroke-miterlimit="10" stroke-width="0.25"/>
          <polygon points="213.522 27.722 220.03 27.722 216.746 18.732 213.522 27.722" stroke="#000" stroke-miterlimit="10" stroke-width="0.25"/>
          <path d="M235.96,16.7263l8.4846,12.8385V16.6074a2.8447,2.8447,0,0,1,.5424-1.8946,1.83,1.83,0,0,1,1.4636-.6315,1.8868,1.8868,0,0,1,1.5008.6315,2.8176,2.8176,0,0,1,.55,1.8946V33.74q0,2.8678-2.3775,2.8679a3.1487,3.1487,0,0,1-1.07-.1709,2.715,2.715,0,0,1-.8916-.5424,5.2839,5.2839,0,0,1-.7727-.8692q-.3566-.4978-.7132-1.0179l-8.2767-12.69V34.082a2.7231,2.7231,0,0,1-.5795,1.8871,1.9156,1.9156,0,0,1-1.4859.639,1.8942,1.8942,0,0,1-1.5008-.6464,2.7767,2.7767,0,0,1-.5647-1.88V17.2761a4.7571,4.7571,0,0,1,.2378-1.6791,2.3966,2.3966,0,0,1,.9361-1.0922,2.5483,2.5483,0,0,1,1.4117-.4235,2.3133,2.3133,0,0,1,1.7608.7133,5.3631,5.3631,0,0,1,.6538.847Q235.6029,16.1617,235.96,16.7263Z" stroke="#000" stroke-miterlimit="10" stroke-width="0.25"/>
        </g>
        <g>
          <ellipse cx="25.3447" cy="25.3447" rx="33.5438" ry="12.6026" transform="translate(-10.4981 25.3447) rotate(-45)" fill="#292929"/>
          <g>
            <path d="M47.0563,30.0218l-.9179.641a3.5552,3.5552,0,0,1-1.21.5244l-.0654.0171a41.755,41.755,0,0,0-11.75,5.5669c-2.7819,1.8-5.0488,3.3358-7.0792,4.8a2.3581,2.3581,0,0,0-.277.1992l-.0124.0093c-.137.1-.2708.1976-.4046.2956a4.6176,4.6176,0,0,1-2.8052.7873c-.0731.0031-.1478.0047-.2256.0016-1.8406-.0887-3.6766-.291-5.5234-.2536-.4108.0093-.4574-.1058-.3625-.4917q1.5987-6.5253,2.9266-13.1114c.5057-2.5128.8277-5.0566,1.0813-7.6083.028-.2785.0047-.5617.0047-.9973-.8464,1.2151-1.4641,2.3929-2.1409,3.5334a132.1532,132.1532,0,0,1-7.7141,11.02c-1.7083,2.3058-3.4229,4.6085-5.1141,6.9284a.7065.7065,0,0,1-.9025.3034A22.3011,22.3011,0,0,1,.8311,40.8632c1.2058-1.5683,2.4583-3.0433,3.7543-4.484A107.3839,107.3839,0,0,0,14.7018,23.6054,55.3931,55.3931,0,0,0,22.461,5.7236l.0015.0016c.2194-.5119.168-3.3125,2.2265-.6208h.0015a51.224,51.224,0,0,0,6.8319,6.9143l.1245.1074a54.19,54.19,0,0,1,4.3238,4.0188,1.231,1.231,0,0,1,.0186,1.8842,42.5016,42.5016,0,0,0-4.2584,5.3429c-.2707.3983-.5539.7935-.8262,1.1747-.1867.2582-.3718.515-.5539.7764.6815-.0592,1.36-.0872,2.0305-.0872a25.5342,25.5342,0,0,1,13.7244,4.1962Zm-14.7435,5.511a43.7735,43.7735,0,0,1,11.7018-5.6214,23.4806,23.4806,0,0,0-11.6333-3.2021,22.7967,22.7967,0,0,0-3.12.2179l-.9024.1244.0669-.9086a3.01,3.01,0,0,1,.65-1.57L29.1,24.54c.1992-.2878.403-.571.6068-.8541.2676-.3734.5446-.7577.8028-1.14a44.1892,44.1892,0,0,1,4.3316-5.4487,53.6828,53.6828,0,0,0-4.1589-3.8555l-.1244-.1073a55.8361,55.8361,0,0,1-6.2205-6.1364c.8636,4.512,1.9714,14.8618-.1182,34.0691C26.514,39.3773,29.0672,37.6316,32.3128,35.5328Z" fill="#919191"/>
            <path d="M44.0146,29.9114a43.7735,43.7735,0,0,0-11.7018,5.6214c-3.2456,2.0988-5.7988,3.8445-8.0937,5.5342,2.09-19.2073.9818-29.5571.1182-34.0691a55.8361,55.8361,0,0,0,6.2205,6.1364l.1244.1073a53.6828,53.6828,0,0,1,4.1589,3.8555A44.1892,44.1892,0,0,0,30.51,22.5458c-.2582.3828-.5352.7671-.8028,1.14-.2038.2831-.4076.5663-.6068.8541l-.0233.0327a3.01,3.01,0,0,0-.65,1.57l-.0669.9086.9024-.1244a22.7967,22.7967,0,0,1,3.12-.2179A23.4806,23.4806,0,0,1,44.0146,29.9114Z" fill="#fff"/>
          </g>
        </g>
      </g>
    </g>
  </g>
</svg>
